<?xml version="1.0" encoding="utf-8"?>
<!-- Generator: Adobe Illustrator 23.0.0, SVG Export Plug-In . SVG Version: 6.00 Build 0)  -->
<svg version="1.1" id="Capa_1" xmlns="http://www.w3.org/2000/svg" xmlns:xlink="http://www.w3.org/1999/xlink" x="0px" y="0px"
	 viewBox="0 0 512 512" style="enable-background:new 0 0 512 512;" xml:space="preserve">
<style type="text/css">
	.st0{fill:#0579BA;}
</style>
<g>
	<path class="st0" d="M466.2,410.4l-20.7-7.2c11.6-9.2,19-23.3,19-39.2v-15.1c0-27.6-22.4-50-50-50s-50,22.4-50,50v15.1
		c0,15.9,7.4,30,19,39.2l-20.7,7.2c-10.7,3.7-20.1,9.9-27.6,18.1c-7.4-8-16.8-14.3-27.6-18.1l-20.7-7.2c11.6-9.2,19-23.3,19-39.2
		v-15.1c0-27.6-22.4-50-50-50s-50,22.4-50,50v15.1c0,15.9,7.4,30,19,39.2l-20.7,7.2c-10.8,3.8-20.2,10-27.6,18.1
		c-7.5-8.2-16.9-14.4-27.6-18.1l-20.7-7.2c11.6-9.2,19-23.3,19-39.2v-15.1c0-27.6-22.4-50-50-50c-27.6,0-50,22.4-50,50v15.1
		c0,15.9,7.4,30,19,39.2l-20.7,7.2C18.4,419.9,0,445.8,0,474.8v29.6c0,4.2,3.4,7.6,7.6,7.6h241.3c4.2,0,7.6-3.4,7.6-7.6
		s-3.4-7.6-7.6-7.6h-75.2v-22c0-22.6,14.3-42.7,35.6-50.1l30.8-10.7h31.8l30.8,10.7c21.3,7.4,35.6,27.5,35.6,50.1v22h-54
		c-4.2,0-7.6,3.4-7.6,7.6s3.4,7.6,7.6,7.6h220.2c4.2,0,7.6-3.4,7.6-7.6v-29.6C512,445.8,493.6,419.9,466.2,410.4z M62.6,348.9
		c0-19.2,15.6-34.8,34.8-34.8s34.8,15.6,34.8,34.8v15.1c0,19.2-15.6,34.8-34.8,34.8s-34.8-15.6-34.8-34.8V348.9z M15.1,496.9v-22
		c0-22.6,14.3-42.7,35.6-50.1L81.6,414h31.8l30.8,10.7c9.3,3.2,17.3,8.8,23.4,16.3c-5.8,10.1-9,21.7-9,33.8v22H15.1z M221.2,348.9
		c0-19.2,15.6-34.8,34.8-34.8s34.8,15.6,34.8,34.8v15.1c0,19.2-15.6,34.8-34.8,34.8s-34.8-15.6-34.8-34.8V348.9z M379.7,348.9
		c0-19.2,15.6-34.8,34.8-34.8s34.8,15.6,34.8,34.8v15.1c0,19.2-15.6,34.8-34.8,34.8s-34.8-15.6-34.8-34.8V348.9z M496.9,496.9H353.5
		v-22c0-12.1-3.2-23.7-9-33.8c6.2-7.5,14.2-13,23.4-16.3l30.8-10.7h31.8l30.8,10.7c21.3,7.4,35.6,27.5,35.6,50.1V496.9z"/>
	<path class="st0" d="M7.6,263.6h38.7c4.2,0,7.6-3.4,7.6-7.6s-3.4-7.6-7.6-7.6H15.1v-29.8c0-29,23.4-52.6,52.2-53
		c8.4,6.3,18.8,10.1,30.1,10.1c11.3,0,21.7-3.8,30.1-10.1c28.9,0.4,52.2,24,52.2,53v29.8H81.9c-4.2,0-7.6,3.4-7.6,7.6
		s3.4,7.6,7.6,7.6h105.4c4.2,0,7.6-3.4,7.6-7.6v-37.4c0-33-23.6-60.6-54.8-66.8c4.7-7.6,7.3-16.5,7.3-26.1v-22.2
		c0-27.6-22.4-50-50-50c-27.6,0-50,22.4-50,50v22.2c0,9.5,2.7,18.5,7.3,26.1C23.6,158,0,185.6,0,218.6V256
		C0,260.2,3.4,263.6,7.6,263.6z M62.6,103.5c0-19.2,15.6-34.8,34.8-34.8s34.8,15.6,34.8,34.8v22.2c0,19.2-15.6,34.8-34.8,34.8
		s-34.8-15.6-34.8-34.8V103.5z"/>
	<path class="st0" d="M504.4,0H293.7c-4.2,0-7.6,3.4-7.6,7.6s3.4,7.6,7.6,7.6h203.2v198.9H227.2V15.1h31.3c4.2,0,7.6-3.4,7.6-7.6
		S262.7,0,258.5,0h-38.9c-4.2,0-7.6,3.4-7.6,7.6V256c0,4.2,3.4,7.6,7.6,7.6h284.8c4.2,0,7.6-3.4,7.6-7.6V7.6
		C512,3.4,508.6,0,504.4,0z M227.2,248.4v-19.2h269.6v19.2H227.2z"/>
	<path class="st0" d="M370.1,59.6H465c4.2,0,7.6-3.4,7.6-7.6s-3.4-7.6-7.6-7.6h-94.9c-4.2,0-7.6,3.4-7.6,7.6S365.9,59.6,370.1,59.6z
		"/>
	<path class="st0" d="M370.1,112.1H465c4.2,0,7.6-3.4,7.6-7.6c0-4.2-3.4-7.6-7.6-7.6h-94.9c-4.2,0-7.6,3.4-7.6,7.6
		C362.5,108.7,365.9,112.1,370.1,112.1z"/>
	<path class="st0" d="M251.5,155c0,4.2,3.4,7.6,7.6,7.6h206c4.2,0,7.6-3.4,7.6-7.6c0-4.2-3.4-7.6-7.6-7.6H259
		C254.8,147.4,251.5,150.8,251.5,155z"/>
	<path class="st0" d="M295.9,30.3c-26.4,0-48,21.5-48,48s21.5,48,48,48s48-21.5,48-48S322.3,30.3,295.9,30.3z M295.9,111.1
		c-18.1,0-32.8-14.7-32.8-32.8c0-18.1,14.7-32.8,32.8-32.8s32.8,14.7,32.8,32.8C328.7,96.4,314,111.1,295.9,111.1z"/>
</g>
</svg>
