<?xml version="1.0" encoding="utf-8"?>
<!-- Generator: Adobe Illustrator 23.0.0, SVG Export Plug-In . SVG Version: 6.00 Build 0)  -->
<svg version="1.1" id="Layer_1" xmlns="http://www.w3.org/2000/svg" xmlns:xlink="http://www.w3.org/1999/xlink" x="0px" y="0px"
	 viewBox="0 0 511 511" style="enable-background:new 0 0 511 511;" xml:space="preserve">
<style type="text/css">
	.st0{fill:#1E88BA;}
	.st1{fill:#0579BA;}
</style>
<path class="st0" d="M1138.2,192.1C1138.2,192,1138.2,192,1138.2,192.1C1138.2,192,1138.2,192,1138.2,192.1l-81.9-190
	c-3-6.9-7.5-12.9-13-17.4c-10.6-8.4-23.9-13.1-37.5-13.1h-44.7c-0.2,0-0.4,0-0.6,0h-76.9c-0.1,0-0.2,0-0.2,0h-0.2h-76.9
	c-0.2,0-0.4,0-0.6,0H770c-4.1,0-7.5,3.4-7.5,7.5s3.4,7.5,7.5,7.5h26.7l-13.5,62.6c-12.3-9.9-27.6-15.3-43.8-15.3
	c-10.3,0-20.2,2.2-29.3,6.4l14-32.3c2-4.7,5-8.7,8.7-11.7c0,0,6.4-4.5,9.9-6c3.8-1.7,5.5-6.1,3.8-9.9c-1.7-3.8-6.1-5.5-9.9-3.8
	c-4.7,2.1-9.1,4.7-13.1,7.9l-0.1,0.1c-5.6,4.5-10.1,10.5-13.1,17.4l-52.7,122.2c-0.1,0.2-0.1,0.3-0.2,0.5l-29,67.2l0,0l0,0
	c-0.4,1-0.6,2-0.6,3V222c0,4.7,2.8,9,7.2,10.9c4.4,1.9,9.4,1,12.8-2.3c13.4-12.7,31-19.6,49.5-19.6c20.2,0,39.6,8.6,53.2,23.5
	c2.2,2.5,5.4,3.9,8.8,3.9c3.3,0,6.5-1.4,8.8-3.9c13.6-14.9,33-23.5,53.2-23.5s39.6,8.6,53.2,23.5c2.2,2.5,5.4,3.9,8.8,3.9
	s6.5-1.4,8.8-3.9c13.6-14.9,33-23.5,53.2-23.5s39.6,8.6,53.2,23.5c2.2,2.5,5.4,3.9,8.8,3.9c3.3,0,6.5-1.4,8.8-3.9
	c9.9-10.8,22.5-18.2,36.7-21.6c4-0.9,6.5-5,5.6-9s-5-6.5-9-5.6c-16,3.8-30.5,11.9-42,23.6c-16.3-16.5-38.7-25.9-62-25.9
	c-23.3,0-45.7,9.4-62,25.9c-16.3-16.5-38.7-25.9-62-25.9c-23.3,0-45.7,9.4-62,25.9c-16.3-16.5-38.7-25.9-62-25.9
	c-20,0-39.1,6.8-54.5,19.2v-17.7c29.6-34.2,82.7-32.8,110.7,2c0.1,0.1,1.6,2.3,4.7,2.7c2.8,0.4,5.4-0.7,7-2.8
	c13.8-17,34.2-26.8,56.1-26.8c20.7,0,40.2,7.9,56.3,27.1c0.1,0.1,0.2,0.2,0.3,0.3c0.2,0.2,0.4,0.4,0.6,0.6c1.3,1.1,3.1,1.8,5,1.7
	c1.8-0.1,3.5-0.7,4.7-1.9c0.1-0.1,0.2-0.2,0.3-0.3c0.1-0.1,0.2-0.2,0.3-0.3c0.1-0.1,0.2-0.2,0.3-0.3l0,0
	c13.8-17.1,34.2-26.9,56.2-26.9c37.6,0,57.2,27.9,57.1,27.8c6,5.3,11.9-1.9,10.7-0.8c32.1-37.6,83.3-33.9,110.8-2.1v17.7
	c-12-9.7-26.3-15.9-41.6-18.2c-4.1-0.6-7.9,2.2-8.5,6.3s2.2,7.9,6.3,8.5c14.6,2.2,28,8.7,38.8,18.8c3.4,3.3,8.5,4.1,12.8,2.3
	c4.4-1.9,7.2-6.2,7.2-10.9v-27.1C1138.8,194,1138.6,193,1138.2,192.1z M755,179.6c-27.6-24.5-68.1-28.8-100.3-10.7l16.1-37.3
	c12-13.2,29.2-20.7,47.2-20.7c18.2,0,35.3,7.5,47.3,20.7L755,179.6z M769,114.5C754.9,102.6,737,96,718,96
	c-12.5,0-24.6,2.9-35.4,8.3L698.7,67c10.3-11.5,25.1-18.1,40.8-18.1c15.4,0,29.8,6.2,40,17.3L769,114.5z M875.8,176.9
	c-15.3-12.3-34.4-19.2-54.5-19.2c-18,0-35.3,5.5-49.7,15.5l8.9-41.2c12-13.5,29.3-21.2,47.7-21.2c18.4,0,35.6,7.7,47.6,21.1V176.9z
	 M875.8,111.8C862.3,101.6,845.7,96,828.2,96c-15.3,0-30,4.3-42.5,12.3l8.9-41.3c10.3-11.5,25-18.1,40.8-18.1
	c15.6,0,30.2,6.4,40.5,17.8L875.8,111.8L875.8,111.8z M875.8,46.7c-11.6-8.3-25.7-12.8-40.5-12.8c-12.8,0-25.1,3.4-35.7,9.8
	l12.3-57.1h63.9V46.7z M1005.8-13.4c10.3,0,20,3.4,28.1,9.9c3.6,2.9,6.6,6.9,8.7,11.6l13.8,32.2c-9-4.1-19-6.4-29.3-6.4
	c-16.1,0-31.5,5.4-43.7,15.2l-13.5-62.6L1005.8-13.4L1005.8-13.4z M890.8-13.4h63.9L967,43.7c-10.6-6.3-22.9-9.8-35.8-9.8
	c-14.8,0-28.8,4.5-40.5,12.8v-60.1H890.8z M890.8,66.6c10.3-11.3,24.9-17.8,40.5-17.8c15.8,0,30.5,6.6,40.8,18.1l8.9,41.3
	c-12.5-8-27.2-12.3-42.6-12.3c-17.5,0-34.1,5.6-47.6,15.8L890.8,66.6L890.8,66.6z M945.3,157.8c-20.1,0-39.2,6.8-54.5,19.2v-44.9
	c12-13.4,29.2-21.1,47.6-21.1s35.7,7.7,47.7,21.2l8.9,41.2C980.6,163.3,963.3,157.8,945.3,157.8z M987.2,66.1
	c10.2-11,24.6-17.3,40-17.3c15.7,0,30.5,6.6,40.8,18.1l16.1,37.4c-10.9-5.4-23-8.3-35.5-8.3c-19,0-36.9,6.6-51,18.5L987.2,66.1z
	 M1011.7,179.6l-10.3-47.9c12-13.2,29.1-20.7,47.3-20.7c18.1,0,35.2,7.5,47.2,20.7L1112,169C1080.3,151.2,1039.8,154.6,1011.7,179.6
	z"/>
<g>
	<g>
		<path class="st1" d="M510.9,382.2l-9.5-48.3c-3.8-19.4-13.2-37-27.2-51l-16.7-16.7v-56.8c10.4-4.1,17.9-14.3,17.9-26.2
			c0-3.2-0.5-6.3-1.5-9.2c11.8-3.3,20.5-14.2,20.5-27.1c0-3.4-0.6-6.7-1.7-9.7c11-3.8,18.9-14.3,18.9-26.6
			c0-12.3-7.9-22.7-18.9-26.6c1.1-3,1.7-6.3,1.7-9.7c0-15.5-12.6-28.2-28.2-28.2h-56.5c5.2-6.3,7.7-14.7,6.2-23.2
			c-1.3-7.6-5.6-14.2-12-18.6c-6.4-4.4-14.1-6-21.7-4.5l-48.3,9.5c-19.4,3.8-37,13.2-51,27.2l-16.7,16.7h-56.8
			c-4.1-10.4-14.3-17.9-26.2-17.9c-3.2,0-6.3,0.5-9.2,1.5c-3.3-11.8-14.2-20.5-27.1-20.5c-3.4,0-6.7,0.6-9.7,1.7
			c-3.8-11-14.3-18.9-26.6-18.9C98.5-0.5,88,7.4,84.2,18.4c-3-1.1-6.3-1.7-9.7-1.7c-15.5,0-28.2,12.6-28.2,28.2v56.5
			c-6.3-5.2-14.7-7.7-23.2-6.2c-7.6,1.3-14.2,5.6-18.6,12c-4.4,6.4-6,14.1-4.5,21.7l9.5,48.3c3.8,19.4,13.2,37,27.2,51l16.7,16.7
			v56.8c-10.4,4.1-17.9,14.3-17.9,26.2c0,3.2,0.5,6.3,1.5,9.2c-11.8,3.3-20.5,14.2-20.5,27.1c0,3.4,0.6,6.7,1.7,9.7
			c-11,3.8-18.9,14.3-18.9,26.6c0,12.3,7.9,22.7,18.9,26.6c-1.1,3-1.7,6.3-1.7,9.7c0,15.5,12.6,28.2,28.2,28.2h56.5
			c-5.2,6.3-7.7,14.7-6.2,23.2c1.3,7.6,5.6,14.2,12,18.6c4.8,3.3,10.4,5,16.1,5c1.9,0,3.7-0.2,5.6-0.5l48.3-9.5
			c19.4-3.8,37-13.2,51-27.2l16.7-16.7h56.8c4.1,10.4,14.3,17.9,26.2,17.9c3.2,0,6.3-0.5,9.2-1.5c3.3,11.8,14.2,20.5,27.1,20.5
			c3.4,0,6.7-0.6,9.7-1.7c3.8,11,14.3,18.9,26.6,18.9c12.3,0,22.7-7.9,26.6-18.9c3,1.1,6.3,1.7,9.7,1.7c15.5,0,28.2-12.6,28.2-28.2
			v-56.5c6.3,5.2,14.7,7.7,23.2,6.2c7.6-1.3,14.2-5.6,18.6-12S512.4,389.8,510.9,382.2z M211.5,131.3v-27.3V73.5h59
			c2.7,0,5.2-1.1,7.1-2.9l19.6-19.6c11.1-11.2,25.2-18.7,40.7-21.7l48.3-9.5c2.3-0.4,4.6,0,6.5,1.3s3.2,3.3,3.6,5.6
			c0.8,4.4-2,8.7-6.4,9.8l-20.1,4.9c-6.3,1.5-10.4,7.4-9.6,13.8s6.1,11.2,12.6,11.2h93.4c4.5,0,8.2,3.7,8.2,8.2
			c0,4.2-3.1,7.6-7.2,8.1l-55.3,0.1c-5.5,0-10,4.5-10,10s4.5,10,10,10l71.5-0.1c4.5,0,8.2,3.7,8.2,8.2s-3.7,8.2-8.2,8.2h-71.5
			c-5.5,0-10,4.5-10,10c0,5.5,4.5,10,10,10h55.4c4,0.5,7.2,3.9,7.2,8.1c0,4.5-3.7,8.2-8.2,8.2h-54.4c-5.5,0-10,4.5-10,10
			s4.5,10,10,10h36.4c4,0.5,7.2,3.9,7.2,8.1c0,4.5-3.7,8.2-8.2,8.2h-101c-21.2,0-41-8.3-56-23.2l-12.7-12.7
			c-1.9-1.9-4.4-2.9-7.1-2.9h-59L211.5,131.3L211.5,131.3z M50.9,213.9c-11.2-11.1-18.7-25.2-21.7-40.7l-9.5-48.3
			c-0.5-2.3,0-4.6,1.3-6.5s3.3-3.2,5.6-3.6c4.4-0.8,8.7,2,9.8,6.4l4.9,20.1c1.5,6.3,7.4,10.3,13.8,9.6c6.5-0.8,11.2-6.1,11.2-12.6
			V44.8c0-4.5,3.7-8.2,8.2-8.2c4.2,0,7.6,3.1,8.1,7.2l0.1,55.3c0,5.5,4.5,10,10,10s10-4.5,10-10V44.8c0-0.6,0-1.2-0.1-1.8V27.7
			c0-4.5,3.7-8.2,8.2-8.2s8.2,3.7,8.2,8.2V43c0,0.6-0.1,1.2-0.1,1.8l0.1,54.4c0,5.5,4.5,10,10,10s10-4.5,10-10V43.9
			c0.5-4,3.9-7.2,8.1-7.2c4.5,0,8.2,3.7,8.2,8.2c0,0,0,48.6,0,49v5.4c0,5.5,4.5,10,10,10s10-4.5,10-10V62.9c0.5-4,3.9-7.2,8.1-7.2
			c4.5,0,8.2,3.7,8.2,8.2v101c0,20.8-8.5,41.3-23.2,56l-12.7,12.7c-1.9,1.9-2.9,4.4-2.9,7.1v59h-20v-26.6c0-5.5-4.5-10-10-10
			s-10,4.5-10,10v26.6H73.5v-59c0-2.7-1.1-5.2-2.9-7.1L50.9,213.9z M299.5,437.5h-59v0c-2.7,0-5.2,1.1-7.1,2.9l-19.6,19.6
			c-11.1,11.2-25.2,18.7-40.7,21.7l-48.3,9.5c-2.3,0.5-4.6,0-6.5-1.3s-3.2-3.3-3.6-5.6c-0.8-4.4,2-8.7,6.4-9.8l20.1-4.9
			c6.3-1.6,10.3-7.4,9.6-13.8c-0.8-6.5-6.1-11.2-12.6-11.2H44.8c-4.5,0-8.2-3.7-8.2-8.2c0-4.2,3.2-7.6,7.2-8.1l55.3-0.1
			c5.5,0,10-4.5,10-10s-4.5-10-10-10l-71.5,0.1c-4.5,0-8.2-3.7-8.2-8.2c0-4.5,3.7-8.2,8.2-8.2h71.5c5.5,0,10-4.5,10-10
			s-4.5-10-10-10H43.9c-4-0.5-7.2-3.9-7.2-8.1c0-4.5,3.7-8.2,8.2-8.2h54.4c5.5,0,10-4.5,10-10s-4.5-10-10-10H62.9
			c-4-0.5-7.2-3.9-7.2-8.1c0-4.5,3.7-8.2,8.2-8.2h101c21.2,0,41,8.3,56,23.2l12.7,12.7c1.9,1.9,4.4,2.9,7.1,2.9h59V437.5z
			 M299.8,338.4h-55.1l-9.7-9.8c-16.9-16.9-38.8-27-62.3-28.8v-55.1l9.8-9.7c16.6-16.6,26.9-39,28.8-62.3h55.1l9.7,9.8
			c16.9,16.9,38.8,27,62.3,28.8v55.1l-9.8,9.7C311.7,292.9,301.6,314.8,299.8,338.4z M490,392.6c-1.3,1.9-3.3,3.2-5.6,3.6
			c-4.4,0.8-8.7-2-9.8-6.4l-4.9-20.1c-1.6-6.3-7.4-10.3-13.8-9.6c-6.5,0.8-11.2,6.1-11.2,12.6v93.4c0,4.5-3.7,8.2-8.2,8.2
			c-4.2,0-7.6-3.2-8.1-7.2l-0.1-55.3c0-5.5-4.5-10-10-10s-10,4.5-10,10l0.1,71.5c0,4.5-3.7,8.2-8.2,8.2c-4.5,0-8.2-3.7-8.2-8.2
			v-71.5c0-5.5-4.5-10-10-10s-10,4.5-10,10v55.3c-0.5,4-3.9,7.2-8.1,7.2c-4.5,0-8.2-3.7-8.2-8.2v-54.4c0-5.5-4.5-10-10-10
			s-10,4.5-10,10v36.4c-0.5,4-3.9,7.2-8.1,7.2c-4.5,0-8.2-3.7-8.2-8.2v-40.2v-27.3v-33.5c0-21.2,8.3-41,23.2-56l12.7-12.7
			c1.9-1.9,2.9-4.4,2.9-7.1v-59h21.3h17.3v30.3c0,5.5,4.5,10,10,10s10-4.5,10-10v-30.3h20.6v59c0,2.7,1.1,5.2,2.9,7.1l19.6,19.6
			c11.2,11.1,18.7,25.2,21.7,40.7l9.5,48.3C491.8,388.4,491.3,390.7,490,392.6z"/>
	</g>
</g>
</svg>
