<?xml version="1.0" encoding="utf-8"?>
<!-- Generator: Adobe Illustrator 23.0.0, SVG Export Plug-In . SVG Version: 6.00 Build 0)  -->
<svg version="1.1" id="Layer_1" xmlns="http://www.w3.org/2000/svg" xmlns:xlink="http://www.w3.org/1999/xlink" x="0px" y="0px"
	 viewBox="0 0 512 512" style="enable-background:new 0 0 512 512;" xml:space="preserve">
<style type="text/css">
	.st0{fill:#1E88BA;}
	.st1{fill:#0579BA;}
</style>
<g>
	<g>
		<g>
			<path class="st0" d="M1200.2,318.2l-1.8-0.5c-26.5-7.1-35.4-13.9-47.2-18.4c-38.7-14.8-50.9-25.7-54.7-31.5
				c8.1-7.3,15.5-16.1,22.1-26.3c19.8-30.8,26.9-66,26.9-88.7V48.6c0-36.1-5.4-57.8-18-72.5c-13.6-15.9-35.2-23-69.8-23H934.3
				c-27.2,0-48.6,7.5-63.5,22.4c-16.1,16.2-24.3,40.8-24.3,73.1c0,0,0,42.4,0,104.1c0,35.9,9.6,69.6,27.1,94.8
				c6,8.6,12.8,16.1,20.3,22.4c-5.2,6.2-18.7,16.3-53.1,29.4c-11.8,4.4-20.7,11.2-47.2,18.3l-1.8,0.5c-24.1,8-40.3,30.3-40.3,55.5
				V465H996h244.5v-91.4C1240.5,348.5,1224.3,326.1,1200.2,318.2z M1102.6,300.2v58.3h-21.3V283
				C1086.6,289.4,1094.1,295.1,1102.6,300.2z M891.1,235.3c-14.8-21.3-23.3-51.4-23.3-82.6c0-61.7,0-104.1,0-104.1
				c0-50.6,21.1-74.2,66.5-74.2h123.4c27.9,0,44.4,4.8,53.6,15.6c8.9,10.4,12.8,28.4,12.8,58.6v104.1c0,18.8-6.2,50.2-23.5,77.1
				c-12.7,19.8-35.9,43.3-73.8,43.3h-61.7C933.5,273.1,908.6,260.4,891.1,235.3z M995.9,315.8c-34.2,0-55.6-10.9-63.9-16V290
				c10.3,2.9,21.4,4.5,33.1,4.5h61.7c11.7,0,22.7-1.8,33.2-5.2v10.5C1051.7,304.9,1030,315.8,995.9,315.8z M1060,323.9v34.5H932
				v-34.5c13.5,6.3,34.9,13.1,63.9,13.1C1024.9,337.1,1046.4,330.3,1060,323.9z M889.3,300.2c8.5-5.1,16.1-10.8,21.3-17.2v75.5
				h-21.3V300.2z M846.5,443.8h-73.7v-70.1c0-15.9,10.2-30,25.3-35.2l1.2-0.3c19.9-5.4,31-10.7,39.8-14.9c3.4-1.6,6.4-3,9.3-4.1
				c6.1-2.3,12.8-5,19.6-8v47.3h-21.5V443.8z M1123.9,443.8h-256v-64h256V443.8L1123.9,443.8z M1219.2,443.8L1219.2,443.8h-74v-85.3
				H1124v-47.3c6.8,3,13.5,5.7,19.6,8c2.8,1.1,5.8,2.5,9.3,4.1c8.8,4.2,19.8,9.5,39.8,14.9l1.2,0.3c15.2,5.2,25.3,19.2,25.3,35.2
				V443.8L1219.2,443.8z"/>
			<path class="st0" d="M910,38.5h172c5.9,0,10.7-4.8,10.7-10.7s-4.8-10.7-10.7-10.7H910c-5.9,0-10.7,4.8-10.7,10.7
				S904.1,38.5,910,38.5z"/>
			<path class="st0" d="M1092,59.8H900v106.7h192V59.8z M945,145.1h-23.7v-64H961L945,145.1z M987.8,145.1H967l16-64h20.7
				L987.8,145.1z M1070.6,145.1L1070.6,145.1h-60.9l15.9-64h45V145.1L1070.6,145.1z"/>
		</g>
	</g>
</g>
<g>
	<path class="st1" d="M36.8,163.3l40.8-40.8l40.8,40.8c3.1,3.1,7.1,4.6,11.1,4.6c4,0,8-1.5,11.1-4.6c6.1-6.1,6.1-16.1,0-22.2
		l-40.8-40.8l40.8-40.8c6.1-6.1,6.1-16.1,0-22.2c-6.1-6.1-16.1-6.1-22.2,0L77.6,78.2L36.8,37.4c-6.1-6.1-16.1-6.1-22.2,0
		c-6.1,6.1-6.1,16.1,0,22.2l40.8,40.8l-40.8,40.8c-6.1,6.1-6.1,16.1,0,22.2c3.1,3.1,7.1,4.6,11.1,4.6S33.8,166.4,36.8,163.3
		L36.8,163.3z"/>
	<path class="st1" d="M348.1,348.7c-6.1-6.1-16.1-6.1-22.2,0l-40.8,40.8l-40.8-40.8c-6.1-6.1-16.1-6.1-22.2,0
		c-6.1,6.1-6.1,16.1,0,22.2l40.8,40.8l-40.8,40.8c-6.1,6.1-6.1,16.1,0,22.2c3.1,3.1,7.1,4.6,11.1,4.6c4,0,8-1.5,11.1-4.6l40.8-40.8
		l40.8,40.8c3.1,3.1,7.1,4.6,11.1,4.6s8-1.5,11.1-4.6c6.1-6.1,6.1-16.1,0-22.2l-40.8-40.8l40.8-40.8
		C354.2,364.7,354.2,354.8,348.1,348.7L348.1,348.7z"/>
	<path class="st1" d="M349.3,128.6l-63.3-55c-6.5-5.7-16.5-5-22.1,1.5c-5.7,6.5-5,16.5,1.5,22.1l33.6,29.2
		c-99.1,13-157.7,64.7-190.3,108.5c-30.1,40.4-43.3,80.2-48.1,97.7c3.1-0.4,6.3-0.7,9.6-0.7c7.8,0,15.3,1.3,22.3,3.5
		c5.2-17.3,17.5-50.1,42.1-82.9c40.8-54.2,97.5-86.1,168.8-95.2l-31.3,36c-5.7,6.5-5,16.5,1.5,22.1c3,2.6,6.6,3.8,10.3,3.8
		c4.4,0,8.7-1.8,11.8-5.4l55-63.3C356.6,144.2,355.9,134.3,349.3,128.6L349.3,128.6z"/>
	<path class="st1" d="M70.2,357.9c-25.6,0-46.4,20.8-46.4,46.4c0,25.6,20.8,46.4,46.4,46.4s46.4-20.8,46.4-46.4
		C116.6,378.7,95.8,357.9,70.2,357.9L70.2,357.9z"/>
	<path class="st1" d="M455.6,91c-25.6,0-46.4,20.8-46.4,46.4s20.8,46.4,46.4,46.4c25.6,0,46.4-20.8,46.4-46.4
		C502,111.8,481.2,91,455.6,91z"/>
</g>
</svg>
