<?xml version="1.0" encoding="utf-8"?>
<!-- Generator: Adobe Illustrator 23.0.0, SVG Export Plug-In . SVG Version: 6.00 Build 0)  -->
<svg version="1.1" id="Layer_1" xmlns="http://www.w3.org/2000/svg" xmlns:xlink="http://www.w3.org/1999/xlink" x="0px" y="0px"
	 viewBox="0 0 512 512" style="enable-background:new 0 0 512 512;" xml:space="preserve">
<style type="text/css">
	.st0{fill:#0579BA;}
</style>
<g>
	<path class="st0" d="M110.1,136.5c28.1,0,50.8-22.9,50.8-51.2c0-28.3-22.7-51.2-50.8-51.2S59.3,57.1,59.3,85.3
		C59.3,113.6,82,136.5,110.1,136.5z M110.1,51.2c18.7,0,33.9,15.3,33.9,34.1c0,18.9-15.2,34.1-33.9,34.1
		c-18.7,0-33.9-15.3-33.9-34.1C76.2,66.5,91.4,51.2,110.1,51.2z"/>
	<path class="st0" d="M101.6,349.9h16.9V512h-16.9V349.9z"/>
	<path class="st0" d="M512,59.7h-97.2V25.6h-127v-4.3c0-11.8-9.5-21.3-21.2-21.3c-11.7,0-21.2,9.6-21.2,21.3v132.3H59.3
		C26.5,153.6,0,180.4,0,213.3v85.3c0,23.6,19,42.6,42.3,42.7h8.5V512h16.9V204.8H50.8v119.5h-8.5c-14,0-25.4-11.5-25.4-25.6v-85.3
		c0-23.5,19-42.6,42.3-42.7h228.6v8.5c0,14.1-11.4,25.6-25.4,25.6H152.4V512h16.9V221.9h76.2V512h42.3V213.1
		c10.6-8,16.9-20.5,16.9-33.9v-25.6h-16.9V128h84.7v34.1H512l-20.3-51.2L512,59.7z M270.9,494.9h-8.5V221.9c2.8,0,5.7-0.3,8.5-0.8
		V494.9z M270.9,153.6h-8.5V21.3c0-2.4,1.9-4.3,4.2-4.3c2.3,0,4.2,1.9,4.2,4.3V153.6z M287.8,42.7h110.1v68.3H287.8V42.7z
		 M487,145.1h-97.6V128h25.4V76.8H487l-13.5,34.1L487,145.1z"/>
</g>
</svg>
