<?xml version="1.0" encoding="utf-8"?>
<!-- Generator: Adobe Illustrator 23.0.0, SVG Export Plug-In . SVG Version: 6.00 Build 0)  -->
<svg version="1.1" id="Capa_1" xmlns="http://www.w3.org/2000/svg" xmlns:xlink="http://www.w3.org/1999/xlink" x="0px" y="0px"
	 viewBox="0 0 511.3 511.3" style="enable-background:new 0 0 511.3 511.3;" xml:space="preserve">
<style type="text/css">
	.st0{fill:#0579BA;}
</style>
<g>
	<path class="st0" d="M653.5,275.8c27.3,0,49.5-22.1,49.5-49.5c0-27.3-22.2-49.5-49.5-49.5c-27.3,0-49.5,22.2-49.5,49.5
		C604.1,253.6,626.2,275.8,653.5,275.8z M653.5,193.3c18.2,0,33,14.8,33,33c0,18.2-14.8,33-33,33c-18.2,0-33-14.8-33-33
		C620.5,208.1,635.3,193.3,653.5,193.3z"/>
	<path class="st0" d="M645.3,481.9h16.5v156.7h-16.5V481.9z"/>
	<path class="st0" d="M1045,201.6h-94.6v-33H826.7v-4.1c0-11.4-9.2-20.6-20.6-20.6s-20.6,9.2-20.6,20.6v127.8H604
		c-31.9,0-57.7,25.9-57.7,57.7v82.5c0,22.8,18.5,41.2,41.2,41.2h8.2v164.9h16.5V341.8h-16.5v115.4h-8.2c-13.7,0-24.7-11.1-24.7-24.7
		V350c0-22.8,18.5-41.2,41.2-41.2h222.6v8.2c0,13.7-11.1,24.7-24.7,24.7H694.7v296.9h16.5V358.2h74.2v280.4h41.2V349.8
		c10.3-7.7,16.5-19.9,16.5-32.8v-24.7h-16.5v-24.7h82.5v33H1045l-19.8-49.5L1045,201.6z M810.2,622.1h-8.2V358.2
		c2.8,0,5.5-0.3,8.2-0.8V622.1z M810.2,292.3h-8.2V164.5c0-2.3,1.8-4.1,4.1-4.1s4.1,1.8,4.1,4.1V292.3z M826.7,185.1h107.2v66H826.7
		V185.1z M1020.6,284h-95v-16.5h24.7v-49.5h70.3l-13.2,33L1020.6,284z"/>
</g>
<g>
	<g>
		<g>
			<path class="st0" d="M354.3,180.5h-22.7c-1.4-4.4-3.2-8.7-5.3-12.8l16.1-16.1c2-2,3.1-4.7,3.1-7.5c0-2.8-1.1-5.5-3.1-7.5
				l-18.9-18.9c-4.1-4.1-10.9-4.1-15,0l-16.1,16.1c-4.1-2.1-8.4-3.9-12.8-5.3v-22.7c0-5.9-4.8-10.6-10.6-10.6h-26.7
				c-5.9,0-10.6,4.8-10.6,10.6v22.7c-4.4,1.4-8.7,3.2-12.8,5.3l-16.1-16.1c-4.1-4.1-10.9-4.1-15,0l-18.9,18.9c-2,2-3.1,4.7-3.1,7.5
				c0,2.8,1.1,5.5,3.1,7.5l16.1,16.1c-2.1,4.1-3.9,8.4-5.3,12.8H157c-5.9,0-10.6,4.8-10.6,10.6v26.7c0,5.9,4.8,10.6,10.6,10.6h22.7
				c1.4,4.4,3.2,8.7,5.3,12.8l-16.1,16.1c-4.1,4.1-4.1,10.9,0,15l18.9,18.9c4.1,4.1,10.9,4.1,15,0l16.1-16.1
				c4.1,2.1,8.4,3.9,12.8,5.3v22.7c0,5.9,4.8,10.6,10.6,10.6H269c5.9,0,10.6-4.8,10.6-10.6v-22.7c4.4-1.4,8.7-3.2,12.8-5.3
				l16.1,16.1c4.1,4.1,10.9,4.1,15,0l18.9-18.9c2-2,3.1-4.7,3.1-7.5c0-2.8-1.1-5.5-3.1-7.5l-16.1-16.1c2.1-4.1,3.9-8.4,5.3-12.8
				h22.7c5.9,0,10.6-4.8,10.6-10.6v-26.7C365,185.2,360.2,180.5,354.3,180.5z M350,213.5h-24.1c-3.5,0-6.5,2.4-7.3,5.8
				c-1.6,6.8-4.3,13.3-8,19.3c-1.8,3-1.4,6.8,1.1,9.3l17,17L316,277.5l-17-17c-2.5-2.5-6.3-2.9-9.3-1.1c-6,3.7-12.4,6.4-19.3,8
				c-3.4,0.8-5.8,3.8-5.8,7.3v24.1h-18v-24.1c0-3.5-2.4-6.5-5.8-7.3c-6.8-1.6-13.3-4.3-19.3-8c-3-1.8-6.8-1.4-9.3,1.1l-17,17
				l-12.7-12.7l17-17c2.5-2.5,2.9-6.3,1.1-9.3c-3.7-5.9-6.4-12.4-8-19.3c-0.8-3.4-3.8-5.8-7.3-5.8h-24.1v-18h24.1
				c3.5,0,6.5-2.4,7.3-5.8c1.6-6.8,4.3-13.3,8-19.3c1.8-3,1.4-6.8-1.1-9.3l-17-17l12.7-12.7l17,17c2.5,2.5,6.3,2.9,9.3,1.1
				c5.9-3.7,12.4-6.4,19.3-8c3.4-0.8,5.8-3.8,5.8-7.3v-24.1h18v24.1c0,3.5,2.4,6.5,5.8,7.3c6.8,1.6,13.3,4.3,19.3,8
				c3,1.8,6.8,1.4,9.3-1.1l17-17l12.7,12.7l-17,17c-2.5,2.5-2.9,6.3-1.1,9.3c3.7,5.9,6.4,12.4,8,19.3c0.8,3.4,3.8,5.8,7.3,5.8H350
				V213.5z"/>
		</g>
	</g>
	<g>
		<g>
			<path class="st0" d="M255.6,164.3c-22.2,0-40.2,18-40.2,40.2s18,40.2,40.2,40.2s40.2-18,40.2-40.2S277.8,164.3,255.6,164.3z
				 M255.6,229.6c-13.9,0-25.2-11.3-25.2-25.2s11.3-25.2,25.2-25.2s25.2,11.3,25.2,25.2S269.5,229.6,255.6,229.6z"/>
		</g>
	</g>
	<g>
		<g>
			<path class="st0" d="M83.2,197H58.3c-4.1,0-7.5,3.4-7.5,7.5s3.4,7.5,7.5,7.5h24.9c4.1,0,7.5-3.4,7.5-7.5S87.4,197,83.2,197z"/>
		</g>
	</g>
	<g>
		<g>
			<path class="st0" d="M453,197h-24.9c-4.1,0-7.5,3.4-7.5,7.5s3.4,7.5,7.5,7.5H453c4.1,0,7.5-3.4,7.5-7.5S457.1,197,453,197z"/>
		</g>
	</g>
	<g>
		<g>
			<path class="st0" d="M139,321.1c-2.9-2.9-7.7-2.9-10.6,0l-17.6,17.6c-2.9,2.9-2.9,7.7,0,10.6s7.7,2.9,10.6,0l17.6-17.6
				C142,328.8,142,324,139,321.1z"/>
		</g>
	</g>
	<g>
		<g>
			<path class="st0" d="M400.5,59.6c-2.9-2.9-7.7-2.9-10.6,0l-17.6,17.6c-2.9,2.9-2.9,7.7,0,10.6c2.9,2.9,7.7,2.9,10.6,0l17.6-17.6
				C403.4,67.3,403.4,62.6,400.5,59.6z"/>
		</g>
	</g>
	<g>
		<g>
			<path class="st0" d="M255.7-0.4c-4.1,0-7.5,3.4-7.5,7.5V32c0,4.1,3.4,7.5,7.5,7.5s7.5-3.4,7.5-7.5V7.1
				C263.2,3,259.8-0.4,255.7-0.4z"/>
		</g>
	</g>
	<g>
		<g>
			<path class="st0" d="M400.5,338.7l-17.6-17.6c-2.9-2.9-7.7-2.9-10.6,0c-2.9,2.9-2.9,7.7,0,10.6l17.6,17.6c2.9,2.9,7.7,2.9,10.6,0
				C403.4,346.4,403.4,341.6,400.5,338.7z"/>
		</g>
	</g>
	<g>
		<g>
			<path class="st0" d="M139,77.2l-17.6-17.6c-2.9-2.9-7.7-2.9-10.6,0s-2.9,7.7,0,10.6l17.6,17.6c2.9,2.9,7.7,2.9,10.6,0
				C142,84.9,142,80.2,139,77.2z"/>
		</g>
	</g>
	<g>
		<g>
			<path class="st0" d="M405.3,186.1c-8.1-68.9-62.7-123.5-131.2-131.8c-4.1-0.5-7.9,2.4-8.4,6.5c-0.5,4.1,2.4,7.9,6.5,8.4
				c62.3,7.6,110.8,56.4,118.1,118.7c0.4,3.8,3.7,6.6,7.4,6.6c0.3,0,0.6,0,0.9-0.1C402.8,193.9,405.8,190.2,405.3,186.1z"/>
		</g>
	</g>
	<g>
		<g>
			<path class="st0" d="M398.6,214.5c-4.1-0.5-7.9,2.4-8.4,6.5c-5.1,40.4-27.9,76-62.5,97.8c-14.9,9.4-23.8,25.4-23.8,42.9v30.9
				h-96.4V361c0-16.9-8.9-33-23.1-41.8c-40.3-25-64.4-68.1-64.4-115.4c0-68.4,51.2-126.2,119.1-134.6c4.1-0.5,7-4.3,6.5-8.4
				c-0.5-4.1-4.3-7-8.4-6.5c-75,9.3-132.3,73.8-132.2,149.5c0,26.1,6.8,51.9,19.7,74.5c12.5,21.9,30.4,40.5,51.8,53.7
				c9.9,6.1,16,17.2,16,29v32.6c-7.6,2.6-13.1,9.9-13.1,18.4v10.7c0,4.5,1.6,8.7,4.2,12c-2.6,3.3-4.2,7.5-4.2,12v10.7
				c0,10.8,8.7,19.5,19.5,19.5h23.6v17c0,9.8,8,17.7,17.7,17.7h31c9.8,0,17.7-8,17.7-17.7v-17h23.6c10.8,0,19.5-8.7,19.5-19.5v-10.7
				c0-4.5-1.6-8.7-4.2-12c2.6-3.3,4.2-7.5,4.2-12v-10.7c0-8.5-5.5-15.8-13.1-18.4v-32c0-12.3,6.3-23.6,16.8-30.2
				c38.5-24.1,63.8-63.7,69.4-108.6C405.6,218.8,402.7,215,398.6,214.5z M273.9,493.9c0,1.5-1.3,2.7-2.7,2.7h-31
				c-1.5,0-2.7-1.3-2.7-2.7v-17h36.5V493.9z M317,457.5c0,2.4-2.1,4.5-4.5,4.5c-13.2,0-101.1,0-113.6,0c-2.4,0-4.5-2.1-4.5-4.5
				v-10.7c0-2.4,2.1-4.5,4.5-4.5h113.6c2.4,0,4.5,2.1,4.5,4.5V457.5z M317,422.8c0,2.4-2.1,4.5-4.5,4.5H198.8
				c-2.4,0-4.5-2.1-4.5-4.5v-10.7c0-2.4,2.1-4.5,4.5-4.5h113.6c2.4,0,4.5,2.1,4.5,4.5L317,422.8L317,422.8z"/>
		</g>
	</g>
</g>
</svg>
