<?xml version="1.0" encoding="utf-8"?>
<!-- Generator: Adobe Illustrator 23.0.0, SVG Export Plug-In . SVG Version: 6.00 Build 0)  -->
<svg version="1.1" id="Layer_1" xmlns="http://www.w3.org/2000/svg" xmlns:xlink="http://www.w3.org/1999/xlink" x="0px" y="0px"
	 viewBox="0 0 243.4 281" style="enable-background:new 0 0 243.4 281;" xml:space="preserve">
<style type="text/css">
	.st0{fill:#FFFFFF;}
	.st1{fill:#0579BA;}
</style>
<rect id="XMLID_14_" x="-4464.3" y="-19.4" class="st0" width="1336" height="932"/>
<image style="overflow:visible;enable-background:new    ;" width="457" height="446" id="XMLID_17_" xlink:href="../../Desktop/whitehouse/Baker/img/F8B3DBC2.jpeg"  transform="matrix(1 0 0 1 826.7 138.6003)">
</image>
<text id="XMLID_11_" transform="matrix(1 0 0 1 -3031.7458 -338.1011)" class="st1" style="font-family:'Andina'; font-size:120px;">Whitehouse</text>
<g id="XMLID_13_">
	<g id="XMLID_159_">
		<polygon id="XMLID_170_" class="st1" points="114.7,114.6 114.7,114.6 114.7,114.6 114.7,114.6 		"/>
		<g id="XMLID_166_">
			<path id="XMLID_167_" class="st1" d="M0,210.8V70.3L121.7,0l121.7,70.3v140.5L121.7,281L0,210.8z M18.6,81v119.1l103.1,59.5
				L224.8,200V81L121.7,21.4L18.6,81z"/>
		</g>
		<g id="XMLID_161_">
			<polygon id="XMLID_165_" class="st1" points="178.5,105.1 178.5,157.3 121.7,195.4 64.9,157.3 64.9,105.1 54.7,110 54.7,164.2 
				121.7,209.1 188.7,164.2 188.7,110 			"/>
			<path id="XMLID_162_" class="st1" d="M121.7,213.7l-70.8-47.5v-58.6l17.7-8.4v56.1l53,35.6l53-35.6V99.2l17.7,8.4v58.6
				L121.7,213.7z M58.4,162.2l63.3,42.4l63.3-42.4v-49.8l-2.7-1.3v48.3L121.7,200l-60.6-40.6v-48.3l-2.7,1.3
				C58.4,112.4,58.4,162.2,58.4,162.2z"/>
		</g>
		<polygon id="XMLID_160_" class="st1" points="133,166.5 122.3,174.2 110.4,166.5 110.4,13.6 133,13.6 		"/>
	</g>
</g>
<g id="XMLID_16_">
	<path id="XMLID_31_" class="st1" d="M-113,532.1v0.8c-0.5,0-1,0.2-1.3,0.4c-0.4,0.2-0.7,0.6-0.9,1.1c-0.1,0.2-0.5,1.2-1.3,3.2
		l-8.7,23h-0.8l-6.9-18l-7.6,18h-0.8l-9.2-22.8c-0.9-2.3-1.6-3.7-2-4.2s-1-0.8-1.9-0.8V532h12.1v0.8c-1,0-1.6,0.2-1.9,0.4
		c-0.3,0.3-0.5,0.6-0.5,1c0,0.5,0.3,1.6,1,3.3l5.5,13.5l4.4-10.6l-1.2-3c-0.6-1.6-1.1-2.7-1.5-3.2c-0.3-0.5-0.7-0.9-1.2-1.2
		s-1.1-0.3-2-0.3v-0.8h13.5v0.8c-0.9,0-1.6,0.1-2,0.2c-0.3,0.1-0.5,0.3-0.7,0.5s-0.2,0.5-0.2,0.8s0.3,1.3,0.9,2.9l5.1,13.2l4.5-12
		c0.5-1.2,0.8-2.1,0.9-2.5c0.1-0.5,0.2-0.9,0.2-1.3c0-0.6-0.2-1-0.6-1.3s-1.1-0.5-2.2-0.5v-0.8h7.3C-113,531.9-113,532.1-113,532.1z
		"/>
	<path id="XMLID_33_" class="st1" d="M-101.1,546.6v8.6c0,1.4,0.1,2.3,0.2,2.7c0.2,0.4,0.5,0.7,0.9,0.9c0.5,0.3,1.1,0.4,1.9,0.4h0.9
		v0.8h-14.6v-0.8h0.9c0.8,0,1.5-0.1,2-0.4c0.4-0.2,0.6-0.5,0.8-1c0.2-0.3,0.2-1.2,0.2-2.6v-18.4c0-1.4-0.1-2.3-0.2-2.7
		c-0.2-0.4-0.5-0.7-0.9-0.9c-0.5-0.3-1.1-0.4-1.9-0.4h-0.9V532h14.6v0.8h-0.9c-0.8,0-1.5,0.1-2,0.4c-0.4,0.2-0.6,0.5-0.8,1
		c-0.2,0.3-0.2,1.2-0.2,2.6v7.9h9.8v-7.9c0-1.4-0.1-2.3-0.2-2.7c-0.2-0.4-0.5-0.7-0.9-0.9c-0.5-0.3-1.1-0.4-1.9-0.4h-0.9V532h14.6
		v0.8h-0.9c-0.8,0-1.5,0.1-2,0.4c-0.4,0.2-0.6,0.5-0.8,1c-0.2,0.3-0.2,1.2-0.2,2.6v18.4c0,1.4,0.1,2.3,0.2,2.7
		c0.2,0.4,0.5,0.7,0.9,0.9c0.5,0.3,1.1,0.4,1.9,0.4h0.9v0.8h-14.6v-0.8h0.9c0.8,0,1.5-0.1,2-0.4c0.4-0.2,0.6-0.5,0.8-1
		c0.2-0.3,0.2-1.2,0.2-2.6v-8.6L-101.1,546.6L-101.1,546.6z"/>
	<path id="XMLID_35_" class="st1" d="M-64.4,559.2v0.8H-79v-0.8h0.9c0.8,0,1.5-0.1,2-0.4c0.4-0.2,0.6-0.5,0.8-1
		c0.2-0.3,0.2-1.2,0.2-2.6v-18.4c0-1.4-0.1-2.3-0.2-2.7s-0.5-0.7-0.9-0.9c-0.5-0.3-1.1-0.4-1.9-0.4H-79V532h14.6v0.8h-0.9
		c-0.8,0-1.5,0.1-2,0.4c-0.4,0.2-0.6,0.5-0.8,1c-0.2,0.3-0.2,1.2-0.2,2.6v18.4c0,1.4,0.1,2.3,0.2,2.7c0.2,0.4,0.5,0.7,0.9,0.9
		c0.5,0.3,1.1,0.4,1.9,0.4L-64.4,559.2L-64.4,559.2z"/>
	<path id="XMLID_37_" class="st1" d="M-36.9,532.1v7.6h-0.7c-0.4-1.7-0.9-3-1.5-3.8c-0.5-0.8-1.3-1.4-2.2-1.8
		c-0.5-0.2-1.4-0.4-2.7-0.4h-2.1v21.5c0,1.4,0.1,2.3,0.2,2.7c0.2,0.4,0.5,0.7,0.9,0.9c0.5,0.3,1.1,0.4,1.9,0.4h0.9v0.8h-14.6v-0.8
		h0.9c0.8,0,1.5-0.1,2-0.4c0.4-0.2,0.6-0.5,0.8-1c0.2-0.3,0.2-1.2,0.2-2.6v-21.5h-2c-1.9,0-3.2,0.4-4.1,1.2
		c-1.2,1.1-1.9,2.7-2.3,4.8h-0.8v-7.6L-36.9,532.1L-36.9,532.1z"/>
	<path id="XMLID_39_" class="st1" d="M-23.9,533.7v11.4h0.6c1.8,0,3.1-0.6,3.8-1.7c0.8-1.1,1.3-2.8,1.5-4.9h0.8v14.6H-18
		c-0.2-1.6-0.5-2.9-1-3.9s-1.1-1.7-1.8-2s-1.7-0.5-3-0.5v7.9c0,1.5,0.1,2.5,0.2,2.8s0.4,0.6,0.7,0.8c0.4,0.2,0.9,0.3,1.7,0.3h1.7
		c2.6,0,4.7-0.6,6.3-1.8s2.7-3,3.4-5.5H-9l-1.3,8.9h-24.1v-0.8h0.9c0.8,0,1.5-0.1,2-0.4c0.4-0.2,0.6-0.5,0.8-1
		c0.2-0.3,0.2-1.2,0.2-2.6v-18.4c0-1.3,0-2-0.1-2.3c-0.1-0.5-0.4-0.9-0.8-1.1c-0.5-0.4-1.2-0.6-2.1-0.6h-0.9v-0.8H-11v8.3h-0.8
		c-0.4-2-1-3.5-1.7-4.3c-0.7-0.9-1.7-1.5-3.1-1.9c-0.8-0.2-2.2-0.4-4.3-0.4L-23.9,533.7L-23.9,533.7z"/>
	<path id="XMLID_41_" class="st1" d="M4.3,546.6v8.6c0,1.4,0.1,2.3,0.2,2.7c0.2,0.4,0.5,0.7,0.9,0.9c0.5,0.3,1.1,0.4,1.9,0.4h0.9
		v0.8H-6.4v-0.8h0.9c0.8,0,1.5-0.1,2-0.4c0.4-0.2,0.6-0.5,0.8-1c0.2-0.3,0.2-1.2,0.2-2.6v-18.4c0-1.4-0.1-2.3-0.2-2.7
		c-0.2-0.4-0.5-0.7-0.9-0.9c-0.5-0.3-1.1-0.4-1.9-0.4h-0.9V532H8.2v0.8H7.3c-0.8,0-1.5,0.1-2,0.4c-0.4,0.2-0.6,0.5-0.8,1
		c-0.2,0.3-0.2,1.2-0.2,2.6v7.9h9.9v-7.9c0-1.4-0.1-2.3-0.2-2.7c-0.2-0.4-0.5-0.7-0.9-0.9c-0.5-0.3-1.1-0.4-1.9-0.4h-0.9V532h14.6
		v0.8H24c-0.8,0-1.5,0.1-2,0.4c-0.4,0.2-0.6,0.5-0.8,1c-0.2,0.3-0.2,1.2-0.2,2.6v18.4c0,1.4,0.1,2.3,0.2,2.7
		c0.2,0.4,0.5,0.7,0.9,0.9c0.5,0.3,1.1,0.4,1.9,0.4h0.9v0.8H10.3v-0.8h0.9c0.8,0,1.5-0.1,2-0.4c0.4-0.2,0.6-0.5,0.8-1
		c0.2-0.3,0.2-1.2,0.2-2.6v-8.6L4.3,546.6L4.3,546.6z"/>
	<path id="XMLID_43_" class="st1" d="M41.8,531.7c4.4-0.2,8.1,1.1,10.8,3.9s4.2,6.2,4.2,10.4c0,3.5-1,6.7-3.1,9.3
		c-2.7,3.6-6.6,5.4-11.6,5.4s-8.9-1.7-11.6-5.1c-2.2-2.7-3.3-5.9-3.3-9.6c0-4.1,1.4-7.6,4.2-10.4C34.2,532.8,37.7,531.5,41.8,531.7z
		 M42.1,533c-2.6,0-4.5,1.3-5.8,3.9c-1.1,2.1-1.6,5.2-1.6,9.2c0,4.8,0.8,8.3,2.5,10.6c1.2,1.6,2.8,2.4,4.9,2.4c1.4,0,2.6-0.3,3.5-1
		c1.2-0.9,2.1-2.3,2.8-4.2s1-4.4,1-7.5c0-3.7-0.3-6.5-1-8.3s-1.6-3.1-2.6-3.9C44.7,533.4,43.5,533,42.1,533z"/>
	<path id="XMLID_46_" class="st1" d="M59.3,532.1h14.4v0.8H73c-1.1,0-1.8,0.1-2.2,0.3c-0.4,0.2-0.7,0.5-0.9,0.9
		c-0.2,0.4-0.3,1.4-0.3,3v13.7c0,2.5,0.2,4.2,0.6,5s1,1.5,1.9,2s2,0.8,3.3,0.8c1.5,0,2.8-0.3,3.9-1s1.9-1.6,2.4-2.8s0.8-3.3,0.8-6.2
		v-11.4c0-1.2-0.1-2.1-0.4-2.7c-0.3-0.5-0.6-0.9-1-1.1c-0.6-0.3-1.5-0.5-2.6-0.5v-0.8h9.7v0.8h-0.6c-0.8,0-1.4,0.2-2,0.5
		c-0.5,0.3-0.9,0.8-1.1,1.4c-0.2,0.4-0.3,1.2-0.3,2.4v10.5c0,3.3-0.2,5.6-0.6,7.1s-1.5,2.8-3.2,4s-4,1.8-6.9,1.8
		c-2.4,0-4.3-0.3-5.6-1c-1.8-0.9-3.1-2-3.8-3.4S63,553,63,550.7V537c0-1.6-0.1-2.6-0.3-3s-0.5-0.7-0.9-0.9s-1.2-0.3-2.4-0.3
		L59.3,532.1L59.3,532.1z"/>
	<path id="XMLID_48_" class="st1" d="M108.6,531.5l0.2,9.3H108c-0.4-2.3-1.4-4.2-2.9-5.6c-1.6-1.4-3.2-2.1-5.1-2.1
		c-1.4,0-2.5,0.4-3.3,1.1c-0.8,0.7-1.2,1.6-1.2,2.6c0,0.6,0.1,1.2,0.4,1.6c0.4,0.6,1,1.3,1.9,1.9c0.6,0.5,2.1,1.3,4.5,2.4
		c3.3,1.6,5.5,3.1,6.6,4.5s1.7,3.1,1.7,4.9c0,2.3-0.9,4.3-2.7,6c-1.8,1.7-4.1,2.5-6.9,2.5c-0.9,0-1.7-0.1-2.5-0.3s-1.8-0.5-2.9-1
		c-0.7-0.3-1.2-0.4-1.6-0.4s-0.7,0.1-1.1,0.4c-0.4,0.3-0.7,0.7-1,1.3h-0.8v-10.5h0.8c0.6,3,1.8,5.2,3.5,6.8s3.6,2.3,5.6,2.3
		c1.5,0,2.8-0.4,3.7-1.3c0.9-0.8,1.4-1.8,1.4-2.9c0-0.7-0.2-1.3-0.5-1.9c-0.4-0.6-0.9-1.2-1.6-1.8s-2-1.3-3.8-2.2
		c-2.5-1.2-4.4-2.3-5.5-3.2s-2-1.9-2.6-2.9c-0.6-1.1-0.9-2.3-0.9-3.6c0-2.2,0.8-4.1,2.4-5.7c1.6-1.6,3.7-2.3,6.2-2.3
		c0.9,0,1.8,0.1,2.6,0.3c0.6,0.2,1.4,0.5,2.4,0.9c0.9,0.4,1.6,0.7,1.9,0.7c0.4,0,0.6-0.1,0.8-0.3c0.2-0.2,0.4-0.7,0.6-1.6
		L108.6,531.5L108.6,531.5z"/>
	<path id="XMLID_50_" class="st1" d="M123.7,533.7v11.4h0.6c1.8,0,3.1-0.6,3.8-1.7c0.8-1.1,1.3-2.8,1.5-4.9h0.8v14.6h-0.8
		c-0.2-1.6-0.5-2.9-1-3.9s-1.1-1.7-1.8-2c-0.7-0.3-1.7-0.5-3-0.5v7.9c0,1.5,0.1,2.5,0.2,2.8s0.4,0.6,0.7,0.8
		c0.4,0.2,0.9,0.3,1.7,0.3h1.7c2.6,0,4.7-0.6,6.3-1.8s2.7-3,3.4-5.5h0.8l-1.3,8.9h-24.1v-0.8h0.9c0.8,0,1.5-0.1,2-0.4
		c0.4-0.2,0.6-0.5,0.8-1c0.2-0.3,0.2-1.2,0.2-2.6v-18.4c0-1.3,0-2-0.1-2.3c-0.1-0.5-0.4-0.9-0.8-1.1c-0.5-0.4-1.2-0.6-2.1-0.6h-0.9
		v-0.8h23.4v8.3h-0.8c-0.4-2-1-3.5-1.7-4.3c-0.7-0.9-1.7-1.5-3.1-1.9c-0.8-0.2-2.2-0.4-4.3-0.4L123.7,533.7L123.7,533.7z"/>
	<path id="XMLID_52_" d="M179,531.5v9.7h-0.8c-0.6-2.5-1.7-4.5-3.4-5.8s-3.5-2-5.6-2c-1.7,0-3.3,0.5-4.8,1.5s-2.5,2.3-3.2,3.9
		c-0.9,2.1-1.3,4.4-1.3,6.9s0.3,4.8,0.9,6.8c0.6,2.1,1.6,3.6,3,4.7s3.1,1.6,5.2,1.6c1.8,0,3.4-0.4,4.8-1.2c1.5-0.8,3-2.1,4.6-4v2.4
		c-1.6,1.6-3.2,2.8-4.9,3.6c-1.7,0.7-3.7,1.1-5.9,1.1c-3,0-5.6-0.6-7.9-1.8s-4.1-2.9-5.4-5.1c-1.3-2.2-1.9-4.6-1.9-7.1
		c0-2.7,0.7-5.2,2.1-7.6c1.4-2.4,3.3-4.2,5.6-5.6c2.4-1.3,4.9-2,7.5-2c2,0,4,0.4,6.2,1.3c1.3,0.5,2.1,0.7,2.4,0.7
		c0.4,0,0.8-0.2,1.1-0.5s0.5-0.8,0.6-1.5L179,531.5L179,531.5z"/>
	<path id="XMLID_54_" d="M197.6,531.7c4.4-0.2,8.1,1.1,10.8,3.9c2.8,2.8,4.2,6.2,4.2,10.4c0,3.5-1,6.7-3.1,9.3
		c-2.7,3.6-6.6,5.4-11.6,5.4s-8.9-1.7-11.6-5.1c-2.2-2.7-3.3-5.9-3.3-9.6c0-4.1,1.4-7.6,4.2-10.4C190,532.8,193.5,531.5,197.6,531.7
		z M197.8,533c-2.6,0-4.5,1.3-5.8,3.9c-1.1,2.1-1.6,5.2-1.6,9.2c0,4.8,0.8,8.3,2.5,10.6c1.2,1.6,2.8,2.4,4.9,2.4
		c1.4,0,2.6-0.3,3.5-1c1.2-0.9,2.1-2.3,2.8-4.2s1-4.4,1-7.5c0-3.7-0.3-6.5-1-8.3s-1.6-3.1-2.6-3.9C200.4,533.4,199.2,533,197.8,533z
		"/>
	<path id="XMLID_57_" d="M224.6,532.1l13.8,17.3v-12c0-1.7-0.2-2.8-0.7-3.4c-0.7-0.8-1.8-1.2-3.3-1.2V532h9.2v0.8
		c-1.2,0.2-2,0.3-2.4,0.6c-0.4,0.2-0.7,0.6-0.9,1.2s-0.3,1.5-0.3,2.8v23.2h-0.7l-18.9-23.2v17.7c0,1.6,0.4,2.7,1.1,3.3
		s1.6,0.8,2.5,0.8h0.7v0.8h-10v-0.8c1.5,0,2.6-0.3,3.2-0.9c0.6-0.6,0.9-1.7,0.9-3.1v-19.7l-0.6-0.7c-0.6-0.7-1.1-1.2-1.6-1.5
		c-0.5-0.2-1.1-0.4-2-0.4v-0.8L224.6,532.1L224.6,532.1z"/>
	<path id="XMLID_59_" d="M264.3,531.5l0.2,9.3h-0.8c-0.4-2.3-1.4-4.2-2.9-5.6c-1.6-1.4-3.2-2.1-5.1-2.1c-1.4,0-2.5,0.4-3.3,1.1
		s-1.2,1.6-1.2,2.6c0,0.6,0.1,1.2,0.4,1.6c0.4,0.6,1,1.3,1.9,1.9c0.6,0.5,2.1,1.3,4.5,2.4c3.3,1.6,5.5,3.1,6.6,4.5s1.7,3.1,1.7,4.9
		c0,2.3-0.9,4.3-2.7,6c-1.8,1.7-4.1,2.5-6.9,2.5c-0.9,0-1.7-0.1-2.5-0.3s-1.8-0.5-2.9-1c-0.7-0.3-1.2-0.4-1.6-0.4s-0.7,0.1-1.1,0.4
		c-0.4,0.3-0.7,0.7-1,1.3h-0.9v-10.5h0.8c0.6,3,1.8,5.2,3.5,6.8s3.6,2.3,5.6,2.3c1.5,0,2.8-0.4,3.7-1.3c0.9-0.8,1.4-1.8,1.4-2.9
		c0-0.7-0.2-1.3-0.5-1.9s-0.9-1.2-1.6-1.8s-2-1.3-3.8-2.2c-2.5-1.2-4.4-2.3-5.5-3.2s-2-1.9-2.6-2.9s-0.9-2.3-0.9-3.6
		c0-2.2,0.8-4.1,2.4-5.7c1.6-1.6,3.7-2.3,6.2-2.3c0.9,0,1.8,0.1,2.6,0.3c0.6,0.2,1.4,0.5,2.4,0.9c0.9,0.4,1.6,0.7,1.9,0.7
		c0.4,0,0.6-0.1,0.8-0.3c0.2-0.2,0.4-0.7,0.6-1.6L264.3,531.5L264.3,531.5z"/>
	<path id="XMLID_61_" d="M269,532.1h14.4v0.8h-0.7c-1.1,0-1.8,0.1-2.2,0.3c-0.4,0.2-0.7,0.5-0.9,0.9c-0.2,0.4-0.3,1.4-0.3,3v13.7
		c0,2.5,0.2,4.2,0.6,5s1,1.5,1.9,2s2,0.8,3.3,0.8c1.5,0,2.8-0.3,3.9-1s1.9-1.6,2.4-2.8s0.8-3.3,0.8-6.2v-11.4c0-1.2-0.1-2.1-0.4-2.7
		s-0.6-0.9-1-1.1c-0.6-0.3-1.5-0.5-2.6-0.5v-0.8h9.7v0.8h-0.6c-0.8,0-1.4,0.2-2,0.5s-0.9,0.8-1.1,1.4c-0.2,0.4-0.3,1.2-0.3,2.4v10.5
		c0,3.3-0.2,5.6-0.6,7.1s-1.5,2.8-3.2,4s-4,1.8-6.9,1.8c-2.4,0-4.3-0.3-5.6-1c-1.8-0.9-3.1-2-3.8-3.4c-0.7-1.4-1.1-3.2-1.1-5.5V537
		c0-1.6-0.1-2.6-0.3-3c-0.2-0.4-0.5-0.7-0.9-0.9s-1.2-0.3-2.4-0.3L269,532.1L269,532.1z"/>
	<path id="XMLID_63_" d="M325,550.2l-1,9.8h-24.8v-0.8h0.9c0.8,0,1.5-0.1,2-0.4c0.4-0.2,0.6-0.5,0.8-1c0.2-0.3,0.2-1.2,0.2-2.6
		v-18.4c0-1.4-0.1-2.3-0.2-2.7c-0.2-0.4-0.5-0.7-0.9-0.9c-0.5-0.3-1.1-0.4-1.9-0.4h-0.9V532h14.9v0.8h-1.2c-0.8,0-1.5,0.1-2,0.4
		c-0.4,0.2-0.6,0.5-0.8,1c-0.2,0.3-0.2,1.2-0.2,2.6v17.8c0,1.4,0.1,2.3,0.2,2.7c0.2,0.4,0.5,0.7,1,0.9c0.3,0.1,1.2,0.2,2.5,0.2h2.3
		c1.5,0,2.7-0.3,3.7-0.8s1.8-1.3,2.6-2.5c0.7-1.1,1.4-2.8,2-5L325,550.2L325,550.2z"/>
	<path id="XMLID_65_" d="M349.2,532.1v7.6h-0.7c-0.4-1.7-0.9-3-1.5-3.8c-0.5-0.8-1.3-1.4-2.2-1.8c-0.5-0.2-1.4-0.4-2.7-0.4H340v21.5
		c0,1.4,0.1,2.3,0.2,2.7c0.2,0.4,0.5,0.7,0.9,0.9s1.1,0.4,1.9,0.4h0.9v0.8h-14.6v-0.8h0.9c0.8,0,1.5-0.1,2-0.4
		c0.4-0.2,0.6-0.5,0.8-1c0.2-0.3,0.2-1.2,0.2-2.6v-21.5h-2c-1.9,0-3.2,0.4-4.1,1.2c-1.2,1.1-1.9,2.7-2.3,4.8H324v-7.6L349.2,532.1
		L349.2,532.1z"/>
	<path id="XMLID_67_" d="M366.2,559.2v0.8h-14.6v-0.8h0.9c0.8,0,1.5-0.1,2-0.4c0.4-0.2,0.6-0.5,0.8-1c0.2-0.3,0.2-1.2,0.2-2.6v-18.4
		c0-1.4-0.1-2.3-0.2-2.7c-0.2-0.4-0.5-0.7-0.9-0.9c-0.5-0.3-1.1-0.4-1.9-0.4h-0.9V532h14.6v0.8h-0.9c-0.8,0-1.5,0.1-2,0.4
		c-0.4,0.2-0.6,0.5-0.8,1c-0.2,0.3-0.2,1.2-0.2,2.6v18.4c0,1.4,0.1,2.3,0.2,2.7c0.2,0.4,0.5,0.7,0.9,0.9c0.5,0.3,1.1,0.4,1.9,0.4
		L366.2,559.2L366.2,559.2z"/>
	<path id="XMLID_69_" d="M377.7,532.1l13.8,17.3v-12c0-1.7-0.2-2.8-0.7-3.4c-0.7-0.8-1.8-1.2-3.3-1.2V532h9.2v0.8
		c-1.2,0.2-2,0.3-2.4,0.6c-0.4,0.2-0.7,0.6-0.9,1.2s-0.3,1.5-0.3,2.8v23.2h-0.7l-18.9-23.2v17.7c0,1.6,0.4,2.7,1.1,3.3
		s1.6,0.8,2.5,0.8h0.7v0.8h-9.9v-0.8c1.5,0,2.6-0.3,3.2-0.9c0.6-0.6,0.9-1.7,0.9-3.1v-19.7l-0.6-0.7c-0.6-0.7-1.1-1.2-1.6-1.5
		c-0.5-0.2-1.1-0.4-2-0.4v-0.8L377.7,532.1L377.7,532.1z"/>
	<path id="XMLID_71_" d="M426.7,531.5v9.8h-0.8c-0.9-2.7-2.3-4.7-4.1-6.1s-3.8-2.1-6-2.1c-2.1,0-3.8,0.6-5.2,1.8s-2.4,2.8-2.9,4.9
		c-0.6,2.1-0.9,4.3-0.9,6.5c0,2.7,0.3,5,0.9,7s1.6,3.5,3.1,4.4c1.4,0.9,3.1,1.4,5,1.4c0.7,0,1.4-0.1,2.1-0.2
		c0.7-0.1,1.4-0.4,2.2-0.6v-5.8c0-1.1-0.1-1.8-0.2-2.1c-0.2-0.3-0.5-0.6-0.9-0.9c-0.5-0.3-1-0.4-1.7-0.4h-0.7v-0.8h13.6v0.8
		c-1,0.1-1.7,0.2-2.2,0.4c-0.4,0.2-0.7,0.6-0.9,1.1c-0.1,0.3-0.2,0.9-0.2,1.9v5.8c-1.8,0.8-3.6,1.4-5.6,1.8c-1.9,0.4-3.9,0.6-6,0.6
		c-2.6,0-4.8-0.4-6.6-1.1c-1.7-0.7-3.3-1.7-4.6-2.8c-1.3-1.2-2.4-2.5-3.1-4c-1-1.9-1.4-4-1.4-6.4c0-4.2,1.5-7.7,4.4-10.6
		c3-2.9,6.7-4.3,11.1-4.3c1.4,0,2.6,0.1,3.7,0.3c0.6,0.1,1.6,0.4,2.9,0.9s2.2,0.8,2.4,0.8c0.4,0,0.7-0.1,1.1-0.4s0.6-0.8,0.9-1.6
		L426.7,531.5L426.7,531.5z"/>
</g>
</svg>
